#define circle_check_width 16
#define circle_check_height 16
static unsigned char circle_check_bits[] = {
   0xe0, 0x07, 0xf8, 0x1f, 0x1c, 0x38, 0x06, 0x60, 0x06, 0x60, 0x03, 0xcc,
   0x03, 0xce, 0x33, 0xc7, 0xf3, 0xc3, 0xe3, 0xc1, 0xc3, 0xc0, 0x06, 0x60,
   0x06, 0x60, 0x1c, 0x38, 0xf8, 0x1f, 0xe0, 0x07 };
