#define circle_width 16
#define circle_height 16
static unsigned char circle_bits[] = {
   0xe0, 0x07, 0xf8, 0x1f, 0x1c, 0x38, 0x06, 0x60, 0x06, 0x60, 0x03, 0xc0,
   0x03, 0xc0, 0x03, 0xc0, 0x03, 0xc0, 0x03, 0xc0, 0x03, 0xc0, 0x06, 0x60,
   0x06, 0x60, 0x1c, 0x38, 0xf8, 0x1f, 0xe0, 0x07 };
