#define clock_width 24
#define clock_height 24
static unsigned char clock_bits[] = {
   0x00, 0x7e, 0x00, 0xc0, 0xff, 0x03, 0xe0, 0xc3, 0x07, 0x70, 0x00, 0x0e,
   0x38, 0x00, 0x1c, 0x1c, 0x18, 0x38, 0x0e, 0x18, 0x70, 0x06, 0x18, 0x60,
   0x06, 0x18, 0x60, 0x07, 0x18, 0xe0, 0x03, 0x18, 0xc0, 0x03, 0x18, 0xc0,
   0x03, 0x78, 0xc0, 0x03, 0xf0, 0xc0, 0x07, 0xc0, 0xe1, 0x06, 0x80, 0x61,
   0x06, 0x00, 0x60, 0x0e, 0x00, 0x70, 0x1c, 0x00, 0x38, 0x38, 0x00, 0x1c,
   0x70, 0x00, 0x0e, 0xe0, 0xc3, 0x07, 0xc0, 0xff, 0x03, 0x00, 0x7e, 0x00 };
