#define numeric_6_circle_width 24
#define numeric_6_circle_height 24
static unsigned char numeric_6_circle_bits[] = {
   0x00, 0x00, 0x00, 0x00, 0x00, 0x00, 0x00, 0x7e, 0x00, 0x80, 0xff, 0x01,
   0xe0, 0xff, 0x07, 0xf0, 0xff, 0x0f, 0xf0, 0xff, 0x0f, 0xf8, 0x83, 0x1f,
   0xf8, 0x81, 0x1f, 0xfc, 0xf9, 0x3f, 0xfc, 0xf9, 0x3f, 0xfc, 0xc1, 0x3f,
   0xfc, 0x81, 0x3f, 0xfc, 0x99, 0x3f, 0xfc, 0x99, 0x3f, 0xf8, 0x81, 0x1f,
   0xf8, 0xc3, 0x1f, 0xf0, 0xff, 0x0f, 0xf0, 0xff, 0x0f, 0xe0, 0xff, 0x07,
   0x80, 0xff, 0x01, 0x00, 0x7e, 0x00, 0x00, 0x00, 0x00, 0x00, 0x00, 0x00 };
