#define numeric_7_circle_width 24
#define numeric_7_circle_height 24
static unsigned char numeric_7_circle_bits[] = {
   0x00, 0x00, 0x00, 0x00, 0x00, 0x00, 0x00, 0x7e, 0x00, 0x80, 0xff, 0x01,
   0xe0, 0xff, 0x07, 0xf0, 0xff, 0x0f, 0xf0, 0xff, 0x0f, 0xf8, 0x81, 0x1f,
   0xf8, 0x81, 0x1f, 0xfc, 0x9f, 0x3f, 0xfc, 0xcf, 0x3f, 0xfc, 0xcf, 0x3f,
   0xfc, 0xe7, 0x3f, 0xfc, 0xe7, 0x3f, 0xfc, 0xf3, 0x3f, 0xf8, 0xf3, 0x1f,
   0xf8, 0xf9, 0x1f, 0xf0, 0xff, 0x0f, 0xf0, 0xff, 0x0f, 0xe0, 0xff, 0x07,
   0x80, 0xff, 0x01, 0x00, 0x7e, 0x00, 0x00, 0x00, 0x00, 0x00, 0x00, 0x00 };
