#define shower_width 24
#define shower_height 22
static unsigned char shower_bits[] = {
   0x00, 0x00, 0x00, 0xfc, 0x00, 0x00, 0xfe, 0x1f, 0x00, 0xff, 0xff, 0x00,
   0xc7, 0xff, 0x00, 0xc7, 0x7f, 0x00, 0xc7, 0x3f, 0x00, 0xc7, 0x1f, 0x06,
   0xc7, 0x0f, 0xe6, 0x87, 0x07, 0xe0, 0x87, 0xc3, 0xe0, 0x87, 0xc1, 0x1c,
   0x07, 0x00, 0x1c, 0x07, 0x18, 0x1c, 0x07, 0x98, 0x03, 0x07, 0x80, 0x03,
   0x07, 0x80, 0x03, 0x07, 0x70, 0x00, 0x07, 0x70, 0x00, 0x07, 0x70, 0x00,
   0x07, 0x00, 0x00, 0x00, 0x00, 0x00 };
