#define temperature_three_quarters_width 15
#define temperature_three_quarters_height 26
static unsigned char temperature_three_quarters_bits[] = {
   0xe0, 0x01, 0xf0, 0x07, 0xf8, 0x0f, 0x7c, 0x0f, 0x1c, 0x1e, 0x1c, 0x1c,
   0x1c, 0x1c, 0xdc, 0x1c, 0xdc, 0x1c, 0xdc, 0x1c, 0xdc, 0x1c, 0xdc, 0x1c,
   0xdc, 0x1c, 0xdc, 0x1c, 0xde, 0x1c, 0xce, 0x3c, 0xcf, 0x38, 0xe7, 0x39,
   0xe7, 0x3b, 0xe7, 0x39, 0xcf, 0x39, 0x1e, 0x3c, 0x3e, 0x1f, 0xfc, 0x0f,
   0xf8, 0x07, 0xe0, 0x01 };
