#define temperature_three_quarters_width 16
#define temperature_three_quarters_height 28
static unsigned char temperature_three_quarters_bits[] = {
   0xc0, 0x03, 0xf0, 0x0f, 0xf8, 0x1f, 0xf8, 0x3f, 0x3c, 0x3c, 0x3c, 0x38,
   0x3c, 0x38, 0xbc, 0x39, 0xbc, 0x39, 0xbc, 0x39, 0xbc, 0x39, 0xbc, 0x39,
   0xbc, 0x39, 0xbc, 0x39, 0xbc, 0x39, 0x9c, 0x39, 0x9e, 0x79, 0x9e, 0xf1,
   0xcf, 0xf3, 0xcf, 0xf7, 0xcf, 0xf7, 0xcf, 0xf3, 0x8e, 0xf1, 0x1e, 0x78,
   0xfc, 0x7f, 0xfc, 0x3f, 0xf0, 0x1f, 0xe0, 0x07 };
