#define wifi_strength_alert_width 24
#define wifi_strength_alert_height 24
static unsigned char wifi_strength_alert_bits[] = {
   0x00, 0x00, 0x00, 0x00, 0x00, 0x00, 0x00, 0x00, 0x00, 0x00, 0xff, 0x00,
   0xe0, 0xff, 0x07, 0xf8, 0x00, 0x1f, 0x1e, 0x00, 0x78, 0x0e, 0x00, 0x70,
   0x0c, 0x00, 0x00, 0x1c, 0x00, 0x00, 0x38, 0x00, 0x64, 0x70, 0x00, 0x66,
   0x60, 0x00, 0x66, 0xc0, 0x00, 0x63, 0xc0, 0x81, 0x63, 0x80, 0xc3, 0x61,
   0x00, 0xe7, 0x00, 0x00, 0x66, 0x00, 0x00, 0x3c, 0x60, 0x00, 0x3c, 0x60,
   0x00, 0x18, 0x00, 0x00, 0x00, 0x00, 0x00, 0x00, 0x00, 0x00, 0x00, 0x00 };
