#define wifi_strength_1_width 24
#define wifi_strength_1_height 24
static unsigned char wifi_strength_1_bits[] = {
   0x00, 0x00, 0x00, 0x00, 0x00, 0x00, 0x00, 0x00, 0x00, 0x00, 0xff, 0x00,
   0xe0, 0xff, 0x07, 0xf8, 0x00, 0x1f, 0x1e, 0x00, 0x78, 0x0e, 0x00, 0x70,
   0x0c, 0x00, 0x30, 0x1c, 0x00, 0x38, 0x38, 0x00, 0x1c, 0x70, 0x00, 0x0e,
   0x60, 0x00, 0x06, 0xc0, 0x7e, 0x03, 0xc0, 0xff, 0x03, 0x80, 0xff, 0x01,
   0x00, 0xff, 0x00, 0x00, 0x7e, 0x00, 0x00, 0x3c, 0x00, 0x00, 0x3c, 0x00,
   0x00, 0x18, 0x00, 0x00, 0x00, 0x00, 0x00, 0x00, 0x00, 0x00, 0x00, 0x00 };
